<svg xmlns="http://www.w3.org/2000/svg" viewBox="0 0 1200 800" role="img" aria-label="Bamboo and paper straws">
<defs>
  <linearGradient id="bg" x1="0" y1="0" x2="1" y2="1"><stop offset="0" stop-color="#f8f5ec"/><stop offset="1" stop-color="#ffffff"/></linearGradient>
  <linearGradient id="wood" x1="0" y1="0" x2="1" y2="1"><stop offset="0" stop-color="#e0b77e"/><stop offset="1" stop-color="#c89458"/></linearGradient>
  <filter id="shadow" x="-30%" y="-30%" width="160%" height="160%"><feDropShadow dx="0" dy="18" stdDeviation="18" flood-color="#173122" flood-opacity=".18"/></filter>
  <pattern id="grain" width="34" height="34" patternUnits="userSpaceOnUse"><path d="M0 20 C12 8 20 30 34 12" fill="none" stroke="#8c6338" stroke-width="2" opacity=".18"/></pattern>
</defs>
<rect width="1200" height="800" rx="32" fill="url(#bg)"/>
<circle cx="1020" cy="120" r="170" fill="#cbd5b5" opacity=".35"/>
<circle cx="120" cy="700" r="230" fill="#7f9158" opacity=".09"/>
<g transform="rotate(-12 345 420)"><rect x="345" y="150" width="30" height="500" rx="15" fill="#d8b96f"/><rect x="354" y="150" width="7" height="500" fill="#8d6e39" opacity=".16"/></g><g transform="rotate(-9 411 420)"><rect x="411" y="150" width="30" height="500" rx="15" fill="#e4cf94"/><rect x="420" y="150" width="7" height="500" fill="#8d6e39" opacity=".16"/></g><g transform="rotate(-6 477 420)"><rect x="477" y="150" width="30" height="500" rx="15" fill="#cda95a"/><rect x="486" y="150" width="7" height="500" fill="#8d6e39" opacity=".16"/></g><g transform="rotate(-3 543 420)"><rect x="543" y="150" width="30" height="500" rx="15" fill="#eadcae"/><rect x="552" y="150" width="7" height="500" fill="#8d6e39" opacity=".16"/></g><g transform="rotate(0 609 420)"><rect x="609" y="150" width="30" height="500" rx="15" fill="#d8b96f"/><rect x="618" y="150" width="7" height="500" fill="#8d6e39" opacity=".16"/></g><g transform="rotate(3 675 420)"><rect x="675" y="150" width="30" height="500" rx="15" fill="#e4cf94"/><rect x="684" y="150" width="7" height="500" fill="#8d6e39" opacity=".16"/></g><g transform="rotate(6 741 420)"><rect x="741" y="150" width="30" height="500" rx="15" fill="#cda95a"/><rect x="750" y="150" width="7" height="500" fill="#8d6e39" opacity=".16"/></g><g transform="rotate(9 807 420)"><rect x="807" y="150" width="30" height="500" rx="15" fill="#eadcae"/><rect x="816" y="150" width="7" height="500" fill="#8d6e39" opacity=".16"/></g><g transform="rotate(12 873 420)"><rect x="873" y="150" width="30" height="500" rx="15" fill="#d8b96f"/><rect x="882" y="150" width="7" height="500" fill="#8d6e39" opacity=".16"/></g>
</svg>