<svg xmlns="http://www.w3.org/2000/svg" viewBox="0 0 1200 800" role="img" aria-label="Disposable wooden set">
<defs>
  <linearGradient id="bg" x1="0" y1="0" x2="1" y2="1"><stop offset="0" stop-color="#f8f5ec"/><stop offset="1" stop-color="#ffffff"/></linearGradient>
  <linearGradient id="wood" x1="0" y1="0" x2="1" y2="1"><stop offset="0" stop-color="#e0b77e"/><stop offset="1" stop-color="#c89458"/></linearGradient>
  <filter id="shadow" x="-30%" y="-30%" width="160%" height="160%"><feDropShadow dx="0" dy="18" stdDeviation="18" flood-color="#173122" flood-opacity=".18"/></filter>
  <pattern id="grain" width="34" height="34" patternUnits="userSpaceOnUse"><path d="M0 20 C12 8 20 30 34 12" fill="none" stroke="#8c6338" stroke-width="2" opacity=".18"/></pattern>
</defs>
<rect width="1200" height="800" rx="32" fill="url(#bg)"/>
<circle cx="1020" cy="120" r="170" fill="#cbd5b5" opacity=".35"/>
<circle cx="120" cy="700" r="230" fill="#7f9158" opacity=".09"/>
<g transform="translate(350 125) rotate(-8 80 300)" filter="url(#shadow)"><rect x="48" y="150" width="64" height="470" rx="32" fill="url(#wood)"/><rect x="48" y="150" width="64" height="470" rx="32" fill="url(#grain)"/><path d="M40 170V82h20v78h12V70h20v90h12V82h20v88c0 62-84 62-84 0z" fill="url(#wood)"/></g><g transform="translate(535 105) rotate(4 80 300)" filter="url(#shadow)"><rect x="62" y="160" width="62" height="470" rx="31" fill="url(#wood)"/><path d="M62 175V65c95 30 120 112 62 180z" fill="url(#wood)"/><path d="M72 92c34 22 54 55 55 99" stroke="#8c6338" stroke-width="4" opacity=".25" fill="none"/></g><g transform="translate(720 100) rotate(10 80 300)" filter="url(#shadow)"><rect x="62" y="215" width="62" height="420" rx="31" fill="url(#wood)"/><ellipse cx="93" cy="125" rx="86" ry="120" fill="url(#wood)"/><ellipse cx="93" cy="125" rx="49" ry="78" fill="#f4d7ae" opacity=".5"/></g>
</svg>