<svg xmlns="http://www.w3.org/2000/svg" viewBox="0 0 1200 800" role="img" aria-label="Bagasse disposable plate">
<defs>
  <linearGradient id="bg" x1="0" y1="0" x2="1" y2="1"><stop offset="0" stop-color="#f8f5ec"/><stop offset="1" stop-color="#ffffff"/></linearGradient>
  <linearGradient id="wood" x1="0" y1="0" x2="1" y2="1"><stop offset="0" stop-color="#e0b77e"/><stop offset="1" stop-color="#c89458"/></linearGradient>
  <filter id="shadow" x="-30%" y="-30%" width="160%" height="160%"><feDropShadow dx="0" dy="18" stdDeviation="18" flood-color="#173122" flood-opacity=".18"/></filter>
  <pattern id="grain" width="34" height="34" patternUnits="userSpaceOnUse"><path d="M0 20 C12 8 20 30 34 12" fill="none" stroke="#8c6338" stroke-width="2" opacity=".18"/></pattern>
</defs>
<rect width="1200" height="800" rx="32" fill="url(#bg)"/>
<circle cx="1020" cy="120" r="170" fill="#cbd5b5" opacity=".35"/>
<circle cx="120" cy="700" r="230" fill="#7f9158" opacity=".09"/>
<g filter="url(#shadow)"><ellipse cx="600" cy="410" rx="345" ry="220" fill="#e7dfc7"/><ellipse cx="600" cy="405" rx="265" ry="150" fill="#fff" opacity=".48"/><ellipse cx="600" cy="402" rx="218" ry="115" fill="none" stroke="#a68f61" stroke-width="5" opacity=".28"/></g>
    <path d="M880 185c80-98 170-87 220-65-28 83-92 146-206 138 48-25 82-64 112-104-53 31-80 50-126 31z" fill="#557044" opacity=".85"/>
</svg>