<svg xmlns="http://www.w3.org/2000/svg" viewBox="0 0 1200 800" role="img" aria-label="Wooden ice cream sticks">
<defs>
  <linearGradient id="bg" x1="0" y1="0" x2="1" y2="1"><stop offset="0" stop-color="#f8f5ec"/><stop offset="1" stop-color="#ffffff"/></linearGradient>
  <linearGradient id="wood" x1="0" y1="0" x2="1" y2="1"><stop offset="0" stop-color="#e0b77e"/><stop offset="1" stop-color="#c89458"/></linearGradient>
  <filter id="shadow" x="-30%" y="-30%" width="160%" height="160%"><feDropShadow dx="0" dy="18" stdDeviation="18" flood-color="#173122" flood-opacity=".18"/></filter>
  <pattern id="grain" width="34" height="34" patternUnits="userSpaceOnUse"><path d="M0 20 C12 8 20 30 34 12" fill="none" stroke="#8c6338" stroke-width="2" opacity=".18"/></pattern>
</defs>
<rect width="1200" height="800" rx="32" fill="url(#bg)"/>
<circle cx="1020" cy="120" r="170" fill="#cbd5b5" opacity=".35"/>
<circle cx="120" cy="700" r="230" fill="#7f9158" opacity=".09"/>
<g transform="rotate(-7 300 200)"><rect x="300" y="200" width="55" height="340" rx="27" fill="url(#wood)"/><rect x="308" y="235" width="5" height="250" fill="#8c6338" opacity=".14"/></g><g transform="rotate(-5 390 205)"><rect x="390" y="205" width="55" height="340" rx="27" fill="url(#wood)"/><rect x="398" y="240" width="5" height="250" fill="#8c6338" opacity=".14"/></g><g transform="rotate(-3 480 210)"><rect x="480" y="210" width="55" height="340" rx="27" fill="url(#wood)"/><rect x="488" y="245" width="5" height="250" fill="#8c6338" opacity=".14"/></g><g transform="rotate(-1 570 215)"><rect x="570" y="215" width="55" height="340" rx="27" fill="url(#wood)"/><rect x="578" y="250" width="5" height="250" fill="#8c6338" opacity=".14"/></g><g transform="rotate(1 660 220)"><rect x="660" y="220" width="55" height="340" rx="27" fill="url(#wood)"/><rect x="668" y="255" width="5" height="250" fill="#8c6338" opacity=".14"/></g><g transform="rotate(3 750 225)"><rect x="750" y="225" width="55" height="340" rx="27" fill="url(#wood)"/><rect x="758" y="260" width="5" height="250" fill="#8c6338" opacity=".14"/></g><g transform="rotate(5 840 230)"><rect x="840" y="230" width="55" height="340" rx="27" fill="url(#wood)"/><rect x="848" y="265" width="5" height="250" fill="#8c6338" opacity=".14"/></g><g transform="rotate(-7 314 325)"><rect x="314" y="325" width="55" height="340" rx="27" fill="url(#wood)"/><rect x="322" y="360" width="5" height="250" fill="#8c6338" opacity=".14"/></g><g transform="rotate(-5 404 330)"><rect x="404" y="330" width="55" height="340" rx="27" fill="url(#wood)"/><rect x="412" y="365" width="5" height="250" fill="#8c6338" opacity=".14"/></g><g transform="rotate(-3 494 335)"><rect x="494" y="335" width="55" height="340" rx="27" fill="url(#wood)"/><rect x="502" y="370" width="5" height="250" fill="#8c6338" opacity=".14"/></g><g transform="rotate(-1 584 340)"><rect x="584" y="340" width="55" height="340" rx="27" fill="url(#wood)"/><rect x="592" y="375" width="5" height="250" fill="#8c6338" opacity=".14"/></g><g transform="rotate(1 674 345)"><rect x="674" y="345" width="55" height="340" rx="27" fill="url(#wood)"/><rect x="682" y="380" width="5" height="250" fill="#8c6338" opacity=".14"/></g><g transform="rotate(3 764 350)"><rect x="764" y="350" width="55" height="340" rx="27" fill="url(#wood)"/><rect x="772" y="385" width="5" height="250" fill="#8c6338" opacity=".14"/></g><g transform="rotate(5 854 355)"><rect x="854" y="355" width="55" height="340" rx="27" fill="url(#wood)"/><rect x="862" y="390" width="5" height="250" fill="#8c6338" opacity=".14"/></g><g transform="rotate(-7 328 450)"><rect x="328" y="450" width="55" height="340" rx="27" fill="url(#wood)"/><rect x="336" y="485" width="5" height="250" fill="#8c6338" opacity=".14"/></g><g transform="rotate(-5 418 455)"><rect x="418" y="455" width="55" height="340" rx="27" fill="url(#wood)"/><rect x="426" y="490" width="5" height="250" fill="#8c6338" opacity=".14"/></g><g transform="rotate(-3 508 460)"><rect x="508" y="460" width="55" height="340" rx="27" fill="url(#wood)"/><rect x="516" y="495" width="5" height="250" fill="#8c6338" opacity=".14"/></g><g transform="rotate(-1 598 465)"><rect x="598" y="465" width="55" height="340" rx="27" fill="url(#wood)"/><rect x="606" y="500" width="5" height="250" fill="#8c6338" opacity=".14"/></g><g transform="rotate(1 688 470)"><rect x="688" y="470" width="55" height="340" rx="27" fill="url(#wood)"/><rect x="696" y="505" width="5" height="250" fill="#8c6338" opacity=".14"/></g><g transform="rotate(3 778 475)"><rect x="778" y="475" width="55" height="340" rx="27" fill="url(#wood)"/><rect x="786" y="510" width="5" height="250" fill="#8c6338" opacity=".14"/></g><g transform="rotate(5 868 480)"><rect x="868" y="480" width="55" height="340" rx="27" fill="url(#wood)"/><rect x="876" y="515" width="5" height="250" fill="#8c6338" opacity=".14"/></g>
</svg>