<svg xmlns="http://www.w3.org/2000/svg" viewBox="0 0 1200 800" role="img" aria-label="Private label and OEM packaging">
<defs>
  <linearGradient id="bg" x1="0" y1="0" x2="1" y2="1"><stop offset="0" stop-color="#f8f5ec"/><stop offset="1" stop-color="#ffffff"/></linearGradient>
  <linearGradient id="wood" x1="0" y1="0" x2="1" y2="1"><stop offset="0" stop-color="#e0b77e"/><stop offset="1" stop-color="#c89458"/></linearGradient>
  <filter id="shadow" x="-30%" y="-30%" width="160%" height="160%"><feDropShadow dx="0" dy="18" stdDeviation="18" flood-color="#173122" flood-opacity=".18"/></filter>
  <pattern id="grain" width="34" height="34" patternUnits="userSpaceOnUse"><path d="M0 20 C12 8 20 30 34 12" fill="none" stroke="#8c6338" stroke-width="2" opacity=".18"/></pattern>
</defs>
<rect width="1200" height="800" rx="32" fill="url(#bg)"/>
<circle cx="1020" cy="120" r="170" fill="#cbd5b5" opacity=".35"/>
<circle cx="120" cy="700" r="230" fill="#7f9158" opacity=".09"/>
<g filter="url(#shadow)" transform="translate(255 155)"><rect x="0" y="90" width="690" height="450" rx="28" fill="#d7bd89"/><path d="M0 90L345 0l345 90-345 100z" fill="#ead7ad"/><path d="M345 190v350" stroke="#b58f55" stroke-width="7" opacity=".5"/><rect x="110" y="275" width="470" height="145" rx="16" fill="#fff" opacity=".9"/><circle cx="228" cy="346" r="58" fill="#eef2e8"/><path d="M202 355c25-46 68-54 92-41-12 43-45 66-92 41z" fill="#557044"/><text x="320" y="338" font-family="Arial, sans-serif" font-size="48" font-weight="700" fill="#20452e">YOUR BRAND</text><text x="320" y="380" font-family="Arial, sans-serif" font-size="22" fill="#557044">Custom pack • label • carton</text></g>
</svg>