<svg xmlns="http://www.w3.org/2000/svg" viewBox="0 0 1200 800" role="img" aria-label="Wooden coffee stirrers">
<defs>
  <linearGradient id="bg" x1="0" y1="0" x2="1" y2="1"><stop offset="0" stop-color="#f8f5ec"/><stop offset="1" stop-color="#ffffff"/></linearGradient>
  <linearGradient id="wood" x1="0" y1="0" x2="1" y2="1"><stop offset="0" stop-color="#e0b77e"/><stop offset="1" stop-color="#c89458"/></linearGradient>
  <filter id="shadow" x="-30%" y="-30%" width="160%" height="160%"><feDropShadow dx="0" dy="18" stdDeviation="18" flood-color="#173122" flood-opacity=".18"/></filter>
  <pattern id="grain" width="34" height="34" patternUnits="userSpaceOnUse"><path d="M0 20 C12 8 20 30 34 12" fill="none" stroke="#8c6338" stroke-width="2" opacity=".18"/></pattern>
</defs>
<rect width="1200" height="800" rx="32" fill="url(#bg)"/>
<circle cx="1020" cy="120" r="170" fill="#cbd5b5" opacity=".35"/>
<circle cx="120" cy="700" r="230" fill="#7f9158" opacity=".09"/>
<g transform="rotate(-10.0 290 420)"><rect x="290" y="160" width="28" height="480" rx="14" fill="url(#wood)"/><rect x="296" y="185" width="4" height="410" rx="2" fill="#8c6338" opacity=".18"/></g><g transform="rotate(-8.2 345 420)"><rect x="345" y="186" width="28" height="480" rx="14" fill="url(#wood)"/><rect x="351" y="211" width="4" height="410" rx="2" fill="#8c6338" opacity=".18"/></g><g transform="rotate(-6.4 400 420)"><rect x="400" y="212" width="28" height="480" rx="14" fill="url(#wood)"/><rect x="406" y="237" width="4" height="410" rx="2" fill="#8c6338" opacity=".18"/></g><g transform="rotate(-4.6 455 420)"><rect x="455" y="160" width="28" height="480" rx="14" fill="url(#wood)"/><rect x="461" y="185" width="4" height="410" rx="2" fill="#8c6338" opacity=".18"/></g><g transform="rotate(-2.8 510 420)"><rect x="510" y="186" width="28" height="480" rx="14" fill="url(#wood)"/><rect x="516" y="211" width="4" height="410" rx="2" fill="#8c6338" opacity=".18"/></g><g transform="rotate(-1.0 565 420)"><rect x="565" y="212" width="28" height="480" rx="14" fill="url(#wood)"/><rect x="571" y="237" width="4" height="410" rx="2" fill="#8c6338" opacity=".18"/></g><g transform="rotate(0.8000000000000007 620 420)"><rect x="620" y="160" width="28" height="480" rx="14" fill="url(#wood)"/><rect x="626" y="185" width="4" height="410" rx="2" fill="#8c6338" opacity=".18"/></g><g transform="rotate(2.5999999999999996 675 420)"><rect x="675" y="186" width="28" height="480" rx="14" fill="url(#wood)"/><rect x="681" y="211" width="4" height="410" rx="2" fill="#8c6338" opacity=".18"/></g><g transform="rotate(4.4 730 420)"><rect x="730" y="212" width="28" height="480" rx="14" fill="url(#wood)"/><rect x="736" y="237" width="4" height="410" rx="2" fill="#8c6338" opacity=".18"/></g><g transform="rotate(6.199999999999999 785 420)"><rect x="785" y="160" width="28" height="480" rx="14" fill="url(#wood)"/><rect x="791" y="185" width="4" height="410" rx="2" fill="#8c6338" opacity=".18"/></g><g transform="rotate(8.0 840 420)"><rect x="840" y="186" width="28" height="480" rx="14" fill="url(#wood)"/><rect x="846" y="211" width="4" height="410" rx="2" fill="#8c6338" opacity=".18"/></g><g transform="rotate(9.8 895 420)"><rect x="895" y="212" width="28" height="480" rx="14" fill="url(#wood)"/><rect x="901" y="237" width="4" height="410" rx="2" fill="#8c6338" opacity=".18"/></g>
</svg>